<svg xmlns="http://www.w3.org/2000/svg" viewBox="0 0 111.25 25" height="25" width="111.25"><defs><clipPath id="a"><path d="M-1 20h90V0H-1v20z" clip-rule="evenodd"/></clipPath><clipPath id="b"><path d="M0 2.596c.03.305.142.64.343.99l8.18 14.34c.816 1.432 2.14 1.432 2.958 0l8.18-14.34c.194-.34.305-.665.339-.963v-.39c-.087-.695-.66-1.174-1.603-1.233a2.13 2.13 0 0 1-1.653.795c-.184 0-.364-.024-.536-.07a1.803 1.803 0 0 1-1.631 1.071c-.68 0-1.274-.392-1.582-.97C10.743 2.593 10.3 5.8 10.3 5.8H10V3.397 5.8h-.297S9.26 2.593 7.008 1.826c-.308.578-.901.97-1.582.97-.72 0-1.341-.437-1.632-1.07A2.13 2.13 0 0 1 1.606 1C.652 1.059.076 1.548 0 2.257v.338zm10.494 4.268h1.518c.568 0 .823.42.568.937l-.945 1.916a1.372 1.372 0 0 1-.011.15s-.067.766-.374 2.06-.801 1.964-.801 1.964c-.243.43-.664.432-.924.013 0 0-.393-.39-.77-1.977-.377-1.587-.376-2.056-.376-2.056a1.345 1.345 0 0 1-.011-.154l-.945-1.916c-.255-.518 0-.937.568-.937h1.563l.262-.266a.29.29 0 0 1 .417 0l.26.266zm-.492 3.791c.329 0 .595.272.595.607a.601.601 0 0 1-.595.607.601.601 0 0 1-.596-.607c0-.335.267-.607.596-.607z" clip-rule="evenodd"/></clipPath><clipPath id="c"><path d="M0 1h20v18H0V1z"/></clipPath><clipPath id="d"><path d="M0 19h20V1H0v18z" clip-rule="evenodd"/></clipPath><clipPath id="e"><path d="M0 1h20v19H0V1z"/></clipPath><clipPath id="f"><path d="M-1 20h90V0H-1v20z" clip-rule="evenodd"/></clipPath><clipPath id="g"><path d="M28.317 8.167h1.45c.266 0 .416.166.483.333l.817 1.8h4.983l.817-1.8c.116-.233.233-.333.483-.333h1.45c.25 0 .383.216.283.433L33.95 19.817c-.05.1-.117.183-.283.183H33.5c-.15 0-.233-.083-.283-.183L28.034 8.6c-.1-.217.033-.433.283-.433zm3.566 3.983l1.634 3.667h.05l1.666-3.667h-3.35zm10.453-3.667c0-.166.134-.316.317-.316h1.533c.167 0 .317.15.317.316v4.25h1.85l2.217-4.416a.285.285 0 0 1 .266-.15h1.75c.284 0 .4.266.284.483l-2.284 4.233c1.45.584 2.467 1.834 2.467 3.367 0 1.983-1.633 3.583-3.633 3.583h-4.767a.317.317 0 0 1-.317-.316V8.483zm2.184 6.034v3.316h2.716c.884 0 1.65-.733 1.65-1.616 0-.934-.766-1.7-1.65-1.7H44.52zm10.652-6.034c0-.166.134-.316.317-.316h6.783c.184 0 .317.15.317.316V9.85a.316.316 0 0 1-.317.317H57.34v2.916h4.117c.166 0 .316.134.316.317v1.383c0 .167-.15.317-.316.317h-4.117v2.733h4.933c.184 0 .317.15.317.317v1.367a.316.316 0 0 1-.317.316H55.49a.316.316 0 0 1-.317-.316V8.483zm13.798 0c0-.166.15-.316.316-.316h1.55c.167 0 .317.15.317.316v9.35h2.55c.183 0 .317.15.317.317v1.367a.317.317 0 0 1-.317.316H66.42a.316.316 0 0 1-.317-.316V18.15c0-.167.133-.317.317-.317h2.55v-9.35zm7.03 5.5A5.947 5.947 0 0 1 81.983 8c3.334 0 6 2.65 6 5.983a5.989 5.989 0 0 1-6 6.017C78.65 20 76 17.317 76 13.983zm2.128 0c0 2.1 1.716 3.85 3.816 3.85 2.1 0 3.834-1.75 3.834-3.85s-1.734-3.816-3.834-3.816a3.826 3.826 0 0 0-3.816 3.816z" clip-rule="evenodd"/></clipPath><clipPath id="h"><path d="M28 8h60v12H28V8z"/></clipPath><clipPath id="i"><path d="M28 20.016h60V7.968H28v12.048z" clip-rule="evenodd"/></clipPath><clipPath id="j"><path d="M27 8h61v12H27V8z"/></clipPath><clipPath id="k"><path d="M-1 20h90V0H-1v20z" clip-rule="evenodd"/></clipPath><clipPath id="l"><path d="M-1 20h90V0H-1v20z" clip-rule="evenodd"/></clipPath><clipPath id="m"><path d="M28 .15c0-.022.016-.039.032-.039h1.085c1.057 0 1.914.846 1.914 1.903a1.902 1.902 0 0 1-1.914 1.892h-1.085c-.016 0-.032-.016-.032-.038V.15zm.092.059v3.6h1.025c1.003 0 1.822-.803 1.822-1.795A1.812 1.812 0 0 0 29.117.21h-1.025zm5.816-.06c0-.021.017-.038.038-.038h2.207c.022 0 .038.017.038.038v.022a.037.037 0 0 1-.038.038h-2.147v1.827h1.887c.021 0 .038.016.038.038v.022a.037.037 0 0 1-.038.038h-1.887v1.675h2.147c.022 0 .038.016.038.038v.021a.037.037 0 0 1-.038.038h-2.207a.037.037 0 0 1-.038-.038V.15zm6.316-.125c.016-.032.048-.032.064 0l1.67 3.844c.006.017 0 .028-.016.033l-.048.016c-.017.006-.022-.005-.028-.016L40.256.198l-1.572 3.703c-.006.011-.011.022-.028.016l-.048-.016c-.016-.005-.022-.016-.016-.033L40.224.024zm4.725.125c0-.021.016-.038.038-.038h2.206c.022 0 .038.017.038.038v.022a.037.037 0 0 1-.038.038h-2.147v1.827h1.887c.022 0 .038.016.038.038v.022a.037.037 0 0 1-.038.038h-1.887v1.675h2.147c.022 0 .038.016.038.038v.021a.037.037 0 0 1-.038.038h-2.206a.037.037 0 0 1-.038-.038V.15zm5.241 0c0-.021.016-.038.038-.038h1.947c.021 0 .038.017.038.038v.022a.037.037 0 0 1-.038.038h-1.893v3.66c0 .021-.016.037-.032.037h-.022a.037.037 0 0 1-.038-.038V.15zm4.639 1.854c0-1.09.867-1.946 1.957-1.946s1.963.857 1.963 1.946a1.95 1.95 0 0 1-1.963 1.958 1.946 1.946 0 0 1-1.957-1.958zm.097 0a1.85 1.85 0 0 0 1.86 1.86 1.854 1.854 0 0 0 1.865-1.86c0-1.035-.83-1.849-1.865-1.849a1.84 1.84 0 0 0-1.86 1.85zM62.021.15c0-.021.016-.038.038-.038h.021c.022 0 .038.017.038.038v1.29h1.074c.678 0 1.236.559 1.236 1.242 0 .673-.558 1.225-1.241 1.225h-1.128a.037.037 0 0 1-.038-.038V.15zm.097 1.388V3.81h1.069A1.14 1.14 0 0 0 64.33 2.68c0-.629-.515-1.144-1.139-1.144h-1.074zM67.245.154c-.005-.026-.005-.038.016-.043l.044-.01c.016-.006.027.005.032.032l.754 3.589L69.256.068c.011-.038.066-.038.076 0l1.144 3.654.781-3.59c.006-.026.017-.037.033-.032l.043.011c.022.005.022.017.016.043l-.818 3.818c-.011.038-.065.038-.076 0L69.295.306l-1.177 3.666c-.01.038-.07.038-.076 0L67.245.154zM74.562.15c0-.021.016-.038.038-.038h2.206c.022 0 .038.017.038.038v.022a.037.037 0 0 1-.038.038H74.66v1.827h1.886c.022 0 .038.016.038.038v.022a.037.037 0 0 1-.038.038H74.66v1.675h2.146c.022 0 .038.016.038.038v.021a.037.037 0 0 1-.038.038H74.6a.037.037 0 0 1-.038-.038V.15zm5.242 0c0-.021.016-.038.037-.038h.022c.022 0 .038.017.038.038v3.633L82.704.046c.022-.032.07-.016.07.022v3.8a.037.037 0 0 1-.037.038h-.022a.037.037 0 0 1-.038-.038V.247l-2.803 3.735c-.022.033-.07.017-.07-.021V.149zm6.962.094c0-.022.016-.038.038-.038h.021c.022 0 .038.016.038.038v3.66h1.139c.022 0 .038.016.038.037v.022a.037.037 0 0 1-.038.038h-2.364a.037.037 0 0 1-.038-.038V3.94c0-.021.016-.038.038-.038h1.128V.242z" clip-rule="evenodd"/></clipPath><clipPath id="n"><path d="M28 0h61v5H28V0z"/></clipPath><clipPath id="o"><path d="M28 0h61v5H28V0z"/></clipPath><clipPath id="p"><path d="M28 4.032h60.048V0H28v4.032z" clip-rule="evenodd"/></clipPath><clipPath id="q"><path d="M28 0h61v5H28V0z"/></clipPath></defs><g clip-path="url(#a)" transform="matrix(1.25 0 0 -1.25 0 25)"><g clip-path="url(#b)"><g clip-path="url(#c)"><g clip-path="url(#e)"><path d="M-5 24h30V-4H-5v28z" fill="#ff4e50"/></g></g></g></g><g clip-path="url(#f)" transform="matrix(1.25 0 0 -1.25 0 25)"><g clip-path="url(#g)"><g clip-path="url(#h)"><g clip-path="url(#j)"><path d="M23 25.016h70V2.968H23v22.048z" fill="#ff4e50"/></g></g></g></g><g clip-path="url(#k)" transform="matrix(1.25 0 0 -1.25 0 25)"><path d="M28 .15c0-.022.016-.039.032-.039h1.085c1.057 0 1.914.846 1.914 1.903a1.902 1.902 0 0 1-1.914 1.892h-1.085c-.016 0-.032-.016-.032-.038V.15zm.092.059v3.6h1.025c1.003 0 1.822-.803 1.822-1.795A1.812 1.812 0 0 0 29.117.21h-1.025zm5.816-.06c0-.021.017-.038.038-.038h2.207c.022 0 .038.017.038.038v.022a.037.037 0 0 1-.038.038h-2.147v1.827h1.887c.021 0 .038.016.038.038v.022a.037.037 0 0 1-.038.038h-1.887v1.675h2.147c.022 0 .038.016.038.038v.021a.037.037 0 0 1-.038.038h-2.207a.037.037 0 0 1-.038-.038V.15zm6.316-.125c.016-.032.048-.032.064 0l1.67 3.844c.006.017 0 .028-.016.033l-.048.016c-.017.006-.022-.005-.028-.016L40.256.198l-1.572 3.703c-.006.011-.011.022-.028.016l-.048-.016c-.016-.005-.022-.016-.016-.033L40.224.024zm4.725.125c0-.021.016-.038.038-.038h2.206c.022 0 .038.017.038.038v.022a.037.037 0 0 1-.038.038h-2.147v1.827h1.887c.022 0 .038.016.038.038v.022a.037.037 0 0 1-.038.038h-1.887v1.675h2.147c.022 0 .038.016.038.038v.021a.037.037 0 0 1-.038.038h-2.206a.037.037 0 0 1-.038-.038V.15zm5.241 0c0-.021.016-.038.038-.038h1.947c.021 0 .038.017.038.038v.022a.037.037 0 0 1-.038.038h-1.893v3.66c0 .021-.016.037-.032.037h-.022a.037.037 0 0 1-.038-.038V.15zm4.639 1.854c0-1.09.867-1.946 1.957-1.946s1.963.857 1.963 1.946a1.95 1.95 0 0 1-1.963 1.958 1.946 1.946 0 0 1-1.957-1.958zm.097 0a1.85 1.85 0 0 0 1.86 1.86 1.854 1.854 0 0 0 1.865-1.86c0-1.035-.83-1.849-1.865-1.849a1.84 1.84 0 0 0-1.86 1.85zM62.021.15c0-.021.016-.038.038-.038h.021c.022 0 .038.017.038.038v1.29h1.074c.678 0 1.236.559 1.236 1.242 0 .673-.558 1.225-1.241 1.225h-1.128a.037.037 0 0 1-.038-.038V.15zm.097 1.388V3.81h1.069A1.14 1.14 0 0 0 64.33 2.68c0-.629-.515-1.144-1.139-1.144h-1.074zM67.245.154c-.005-.026-.005-.038.016-.043l.044-.01c.016-.006.027.005.032.032l.754 3.589L69.256.068c.011-.038.066-.038.076 0l1.144 3.654.781-3.59c.006-.026.017-.037.033-.032l.043.011c.022.005.022.017.016.043l-.818 3.818c-.011.038-.065.038-.076 0L69.295.306l-1.177 3.666c-.01.038-.07.038-.076 0L67.245.154zM74.562.15c0-.021.016-.038.038-.038h2.206c.022 0 .038.017.038.038v.022a.037.037 0 0 1-.038.038H74.66v1.827h1.886c.022 0 .038.016.038.038v.022a.037.037 0 0 1-.038.038H74.66v1.675h2.146c.022 0 .038.016.038.038v.021a.037.037 0 0 1-.038.038H74.6a.037.037 0 0 1-.038-.038V.15zm5.242 0c0-.021.016-.038.037-.038h.022c.022 0 .038.017.038.038v3.633L82.704.046c.022-.032.07-.016.07.022v3.8a.037.037 0 0 1-.037.038h-.022a.037.037 0 0 1-.038-.038V.247l-2.803 3.735c-.022.033-.07.017-.07-.021V.149zm6.962.094c0-.022.016-.038.038-.038h.021c.022 0 .038.016.038.038v3.66h1.139c.022 0 .038.016.038.037v.022a.037.037 0 0 1-.038.038h-2.364a.037.037 0 0 1-.038-.038V3.94c0-.021.016-.038.038-.038h1.128V.242z" fill="none" stroke="#ff4e50" stroke-width=".5" stroke-miterlimit="10"/></g><g clip-path="url(#l)" transform="matrix(1.25 0 0 -1.25 0 25)"><g clip-path="url(#m)"><g clip-path="url(#n)"><g clip-path="url(#o)"><path d="M28 .15c0-.022.016-.039.032-.039h1.085c1.057 0 1.914.846 1.914 1.903a1.902 1.902 0 0 1-1.914 1.892h-1.085c-.016 0-.032-.016-.032-.038V.15zm.092.059v3.6h1.025c1.003 0 1.822-.803 1.822-1.795A1.812 1.812 0 0 0 29.117.21h-1.025zm5.816-.06c0-.021.017-.038.038-.038h2.207c.022 0 .038.017.038.038v.022a.037.037 0 0 1-.038.038h-2.147v1.827h1.887c.021 0 .038.016.038.038v.022a.037.037 0 0 1-.038.038h-1.887v1.675h2.147c.022 0 .038.016.038.038v.021a.037.037 0 0 1-.038.038h-2.207a.037.037 0 0 1-.038-.038V.15zm6.316-.125c.016-.032.048-.032.064 0l1.67 3.844c.006.017 0 .028-.016.033l-.048.016c-.017.006-.022-.005-.028-.016L40.256.198l-1.572 3.703c-.006.011-.011.022-.028.016l-.048-.016c-.016-.005-.022-.016-.016-.033L40.224.024zm4.725.125c0-.021.016-.038.038-.038h2.206c.022 0 .038.017.038.038v.022a.037.037 0 0 1-.038.038h-2.147v1.827h1.887c.022 0 .038.016.038.038v.022a.037.037 0 0 1-.038.038h-1.887v1.675h2.147c.022 0 .038.016.038.038v.021a.037.037 0 0 1-.038.038h-2.206a.037.037 0 0 1-.038-.038V.15zm5.241 0c0-.021.016-.038.038-.038h1.947c.021 0 .038.017.038.038v.022a.037.037 0 0 1-.038.038h-1.893v3.66c0 .021-.016.037-.032.037h-.022a.037.037 0 0 1-.038-.038V.15zm4.639 1.854c0-1.09.867-1.946 1.957-1.946s1.963.857 1.963 1.946a1.95 1.95 0 0 1-1.963 1.958 1.946 1.946 0 0 1-1.957-1.958zm.097 0a1.85 1.85 0 0 0 1.86 1.86 1.854 1.854 0 0 0 1.865-1.86c0-1.035-.83-1.849-1.865-1.849a1.84 1.84 0 0 0-1.86 1.85zM62.021.15c0-.021.016-.038.038-.038h.021c.022 0 .038.017.038.038v1.29h1.074c.678 0 1.236.559 1.236 1.242 0 .673-.558 1.225-1.241 1.225h-1.128a.037.037 0 0 1-.038-.038V.15zm.097 1.388V3.81h1.069A1.14 1.14 0 0 0 64.33 2.68c0-.629-.515-1.144-1.139-1.144h-1.074zM67.245.154c-.005-.026-.005-.038.016-.043l.044-.01c.016-.006.027.005.032.032l.754 3.589L69.256.068c.011-.038.066-.038.076 0l1.144 3.654.781-3.59c.006-.026.017-.037.033-.032l.043.011c.022.005.022.017.016.043l-.818 3.818c-.011.038-.065.038-.076 0L69.295.306l-1.177 3.666c-.01.038-.07.038-.076 0L67.245.154zM74.562.15c0-.021.016-.038.038-.038h2.206c.022 0 .038.017.038.038v.022a.037.037 0 0 1-.038.038H74.66v1.827h1.886c.022 0 .038.016.038.038v.022a.037.037 0 0 1-.038.038H74.66v1.675h2.146c.022 0 .038.016.038.038v.021a.037.037 0 0 1-.038.038H74.6a.037.037 0 0 1-.038-.038V.15zm5.242 0c0-.021.016-.038.037-.038h.022c.022 0 .038.017.038.038v3.633L82.704.046c.022-.032.07-.016.07.022v3.8a.037.037 0 0 1-.037.038h-.022a.037.037 0 0 1-.038-.038V.247l-2.803 3.735c-.022.033-.07.017-.07-.021V.149zm6.962.094c0-.022.016-.038.038-.038h.021c.022 0 .038.016.038.038v3.66h1.139c.022 0 .038.016.038.037v.022a.037.037 0 0 1-.038.038h-2.364a.037.037 0 0 1-.038-.038V3.94c0-.021.016-.038.038-.038h1.128V.242z" fill="none" stroke="#ff4e50" stroke-width=".5" stroke-miterlimit="10"/></g><g clip-path="url(#q)"><path d="M23 9.032h70.048V-5H23V9.032z" fill="#ff4e50"/></g></g></g></g></svg>