<?xml version="1.0" encoding="UTF-8" standalone="no"?>
<svg
   xmlns:dc="http://purl.org/dc/elements/1.1/"
   xmlns:cc="http://creativecommons.org/ns#"
   xmlns:rdf="http://www.w3.org/1999/02/22-rdf-syntax-ns#"
   xmlns:svg="http://www.w3.org/2000/svg"
   xmlns="http://www.w3.org/2000/svg"
   viewBox="0 0 111.25 25"
   height="25"
   width="111.25"
   xml:space="preserve"
   version="1.1"
   id="svg3359"><metadata
     id="metadata3365"><rdf:RDF><cc:Work
         rdf:about=""><dc:format>image/svg+xml</dc:format><dc:type
           rdf:resource="http://purl.org/dc/dcmitype/StillImage" /><dc:title></dc:title></cc:Work></rdf:RDF></metadata><defs
     id="defs3363"><clipPath
       id="clipPath3375"
       clipPathUnits="userSpaceOnUse"><path
         style="clip-rule:evenodd"
         id="path3377"
         d="M -1,20 89,20 89,0 -1,0 -1,20 Z" /></clipPath><clipPath
       id="clipPath3381"
       clipPathUnits="userSpaceOnUse"><path
         style="clip-rule:evenodd"
         id="path3383"
         d="m 0,2.596222 c 0.03073617,0.305167 0.1424442,0.63967 0.342504,0.99042 L 8.522436,17.92616 c 0.816831,1.43194 2.141384,1.43164 2.958074,0 L 19.66044,3.586642 C 19.85461,3.246239 19.96554,2.921154 20,2.62334 l 0,-0.389871 0,0 C 19.91259,1.538008 19.33979,1.059061 18.39679,1 17.99926,1.486261 17.4065,1.79484 16.74445,1.79484 c -0.18494,0 -0.36458,-0.02414 -0.53598,-0.069423 -0.29027,0.633204 -0.91172,1.070733 -1.63145,1.070733 -0.68089,0 -1.27395,-0.391797 -1.58173,-0.970422 -2.25276,0.767701 -2.69678,3.974202 -2.69678,3.974202 l -0.29704,0 0,-2.403114 0,2.403114 -0.297042,0 c 0,0 -0.444019,-3.206501 -2.696778,-3.974202 C 6.699868,2.404353 6.106812,2.79615 5.425923,2.79615 4.706194,2.79615 4.084743,2.358621 3.794468,1.725417 3.623069,1.7707 3.443431,1.79484 3.258496,1.79484 2.59644,1.79484 2.003678,1.486261 1.60615,1 0.6517009,1.05976 0.07670192,1.549471 0,2.258328 l 0,0.337894 0,0 z m 10.49389,4.268143 1.51817,0 c 0.56775,0 0.82301,0.419387 0.56805,0.936685 l -0.94483,1.916404 c -0.0012,0.049031 -0.005,0.098811 -0.01177,0.149192 0,0 -0.06621,0.766054 -0.37355,2.060344 -0.30734,1.29445 -0.80094,1.96394 -0.80094,1.96394 -0.24261,0.43018 -0.663821,0.43213 -0.924377,0.01319 0,0 -0.393114,-0.3903 -0.769751,-1.97713 C 8.378108,10.34016 8.378549,9.870994 8.378549,9.870994 8.371929,9.818964 8.368251,9.767534 8.367662,9.717004 L 7.423128,7.80105 C 7.167868,7.283452 7.422392,6.864365 7.991025,6.864365 l 1.56319,0 0.261292,-0.266296 c 0.115639,-0.117854 0.301893,-0.117404 0.417093,0 l 0.26129,0.266296 0,0 z m -0.49212,3.791125 c 0.32882,0 0.59541,0.27154 0.59541,0.60651 0,0.33497 -0.26659,0.60667 -0.59541,0.60667 -0.328826,0 -0.595414,-0.2717 -0.595414,-0.60667 0,-0.33497 0.266588,-0.60651 0.595414,-0.60651 l 0,0 z" /></clipPath><clipPath
       id="clipPath3387"
       clipPathUnits="userSpaceOnUse"><path
         id="path3389"
         d="M 0,1 20,1 20,19 0,19 0,1 Z" /></clipPath><clipPath
       id="clipPath3391"
       clipPathUnits="userSpaceOnUse"><path
         style="clip-rule:evenodd"
         id="path3393"
         d="M 0,19 20,19 20,1 0,1 0,19 Z" /></clipPath><clipPath
       id="clipPath3395"
       clipPathUnits="userSpaceOnUse"><path
         id="path3397"
         d="M 0,1 20,1 20,20 0,20 0,1 Z" /></clipPath><clipPath
       id="clipPath3417"
       clipPathUnits="userSpaceOnUse"><path
         style="clip-rule:evenodd"
         id="path3419"
         d="M -1,20 89,20 89,0 -1,0 -1,20 Z" /></clipPath><clipPath
       id="clipPath3423"
       clipPathUnits="userSpaceOnUse"><path
         style="clip-rule:evenodd"
         id="path3425"
         d="m 28.3168,8.1668 1.45,0 c 0.2664,0 0.4164,0.1664 0.4832,0.3332 l 0.8168,1.8 4.9832,0 0.8168,-1.8 C 36.9832,8.2668 37.1,8.1668 37.35,8.1668 l 1.45,0 c 0.25,0 0.3832,0.2164 0.2832,0.4332 L 33.95,19.8168 C 33.9,19.9168 33.8332,20 33.6668,20 L 33.5,20 c -0.15,0 -0.2332,-0.0832 -0.2832,-0.1832 L 28.0336,8.6 C 27.9332,8.3832 28.0668,8.1668 28.3168,8.1668 l 0,0 z m 3.5664,3.9832 1.6336,3.6668 0.05,0 1.6664,-3.6668 -3.35,0 0,0 z M 42.336,8.4832 c 0,-0.1664 0.1336,-0.3164 0.3168,-0.3164 l 1.5332,0 c 0.1668,0 0.3168,0.15 0.3168,0.3164 l 0,4.25 1.85,0 2.2168,-4.4164 c 0.0332,-0.0668 0.1164,-0.15 0.2664,-0.15 l 1.75,0 c 0.2836,0 0.4,0.2664 0.2836,0.4832 l -2.2836,4.2332 c 1.45,0.5836 2.4668,1.8336 2.4668,3.3668 0,1.9832 -1.6332,3.5832 -3.6332,3.5832 l -4.7668,0 c -0.1832,0 -0.3168,-0.15 -0.3168,-0.3164 l 0,-11.0336 0,0 z m 2.1836,6.0336 0,3.3164 2.7164,0 c 0.8836,0 1.65,-0.7332 1.65,-1.6164 0,-0.9336 -0.7664,-1.7 -1.65,-1.7 l -2.7164,0 0,0 z M 55.1724,8.4832 c 0,-0.1664 0.1332,-0.3164 0.3164,-0.3164 l 6.7836,0 c 0.1832,0 0.3164,0.15 0.3164,0.3164 l 0,1.3668 c 0,0.1668 -0.1332,0.3168 -0.3164,0.3168 l -4.9336,0 0,2.9164 4.1168,0 c 0.1668,0 0.3168,0.1336 0.3168,0.3168 l 0,1.3832 c 0,0.1668 -0.15,0.3168 -0.3168,0.3168 l -4.1168,0 0,2.7332 4.9336,0 c 0.1832,0 0.3164,0.15 0.3164,0.3168 l 0,1.3668 c 0,0.1664 -0.1332,0.3164 -0.3164,0.3164 l -6.7836,0 c -0.1832,0 -0.3164,-0.15 -0.3164,-0.3164 l 0,-11.0336 0,0 z m 13.7972,0 c 0,-0.1664 0.15,-0.3164 0.3164,-0.3164 l 1.55,0 c 0.1668,0 0.3168,0.15 0.3168,0.3164 l 0,9.35 2.55,0 c 0.1832,0 0.3168,0.15 0.3168,0.3168 l 0,1.3668 c 0,0.1664 -0.1336,0.3164 -0.3168,0.3164 l -7.2832,0 c -0.1836,0 -0.3168,-0.15 -0.3168,-0.3164 l 0,-1.3668 c 0,-0.1668 0.1332,-0.3168 0.3168,-0.3168 l 2.55,0 0,-9.35 0,0 z M 76,13.9832 C 76,10.65 78.65,8 81.9832,8 c 3.3336,0 6,2.65 6,5.9832 0,3.3336 -2.6664,6.0168 -6,6.0168 C 78.65,20 76,17.3168 76,13.9832 l 0,0 z m 2.128,0 c 0,2.1 1.7164,3.85 3.8164,3.85 2.1,0 3.8336,-1.75 3.8336,-3.85 0,-2.1 -1.7336,-3.8164 -3.8336,-3.8164 -2.1,0 -3.8164,1.7164 -3.8164,3.8164 l 0,0 z" /></clipPath><clipPath
       id="clipPath3429"
       clipPathUnits="userSpaceOnUse"><path
         id="path3431"
         d="M 28,8 88,8 88,20 28,20 28,8 Z" /></clipPath><clipPath
       id="clipPath3433"
       clipPathUnits="userSpaceOnUse"><path
         style="clip-rule:evenodd"
         id="path3435"
         d="m 28,20.016 60,0 0,-12.048 -60,0 0,12.048 z" /></clipPath><clipPath
       id="clipPath3437"
       clipPathUnits="userSpaceOnUse"><path
         id="path3439"
         d="M 27,8 88,8 88,20 27,20 27,8 Z" /></clipPath><clipPath
       id="clipPath3459"
       clipPathUnits="userSpaceOnUse"><path
         style="clip-rule:evenodd"
         id="path3461"
         d="M -1,20 89,20 89,0 -1,0 -1,20 Z" /></clipPath><clipPath
       id="clipPath3471"
       clipPathUnits="userSpaceOnUse"><path
         style="clip-rule:evenodd"
         id="path3473"
         d="M -1,20 89,20 89,0 -1,0 -1,20 Z" /></clipPath><clipPath
       id="clipPath3477"
       clipPathUnits="userSpaceOnUse"><path
         style="clip-rule:evenodd"
         id="path3479"
         d="m 28,0.1492 c 0,-0.0216 0.0164,-0.038 0.0324,-0.038 l 1.0844,0 c 1.0572,0 1.914,0.8456 1.914,1.9032 0,1.0464 -0.8568,1.892 -1.914,1.892 l -1.0844,0 C 28.0164,3.9064 28,3.8904 28,3.8684 l 0,-3.7192 0,0 z m 0.092,0.0596 0,3.6 1.0248,0 c 1.0032,0 1.822,-0.8024 1.822,-1.7944 0,-1.0032 -0.8188,-1.8056 -1.822,-1.8056 l -1.0248,0 0,0 z m 5.8164,-0.0596 c 0,-0.0216 0.0164,-0.038 0.038,-0.038 l 2.2068,0 c 0.0216,0 0.038,0.0164 0.038,0.038 l 0,0.0216 c 0,0.0216 -0.0164,0.038 -0.038,0.038 l -2.1472,0 0,1.8272 1.8868,0 c 0.0216,0 0.038,0.016 0.038,0.038 l 0,0.0216 c 0,0.0216 -0.0164,0.038 -0.038,0.038 l -1.8868,0 0,1.6752 2.1472,0 c 0.0216,0 0.038,0.0164 0.038,0.038 l 0,0.0216 c 0,0.022 -0.0164,0.038 -0.038,0.038 l -2.2068,0 c -0.0216,0 -0.038,-0.016 -0.038,-0.038 l 0,-3.7192 0,0 z m 6.3152,-0.1248 c 0.016,-0.0324 0.0488,-0.0324 0.0648,0 l 1.67,3.844 c 0.0056,0.0164 0,0.0272 -0.016,0.0328 l -0.0488,0.016 C 41.8772,3.9228 41.8716,3.912 41.8664,3.9012 L 40.256,0.198 38.6836,3.9012 C 38.6784,3.912 38.6728,3.9228 38.6564,3.9172 L 38.6076,3.9012 C 38.5916,3.8956 38.586,3.8848 38.5916,3.8684 l 1.632,-3.844 0,0 z m 4.7252,0.1248 c 0,-0.0216 0.016,-0.038 0.038,-0.038 l 2.2064,0 c 0.022,0 0.038,0.0164 0.038,0.038 l 0,0.0216 c 0,0.0216 -0.016,0.038 -0.038,0.038 l -2.1468,0 0,1.8272 1.8868,0 c 0.0216,0 0.038,0.016 0.038,0.038 l 0,0.0216 c 0,0.0216 -0.0164,0.038 -0.038,0.038 l -1.8868,0 0,1.6752 2.1468,0 c 0.022,0 0.038,0.0164 0.038,0.038 l 0,0.0216 c 0,0.022 -0.016,0.038 -0.038,0.038 l -2.2064,0 c -0.022,0 -0.038,-0.016 -0.038,-0.038 l 0,-3.7192 0,0 z m 5.2416,0 c 0,-0.0216 0.016,-0.038 0.038,-0.038 l 1.9464,0 c 0.0216,0 0.038,0.0164 0.038,0.038 l 0,0.0216 c 0,0.0216 -0.0164,0.038 -0.038,0.038 l -1.8924,0 0,3.6596 c 0,0.022 -0.0164,0.038 -0.0324,0.038 l -0.0216,0 c -0.022,0 -0.038,-0.016 -0.038,-0.038 l 0,-3.7192 0,0 z m 4.6384,1.854 c 0,-1.0896 0.8676,-1.9464 1.9572,-1.9464 1.09,0 1.9628,0.8568 1.9628,1.9464 0,1.09 -0.8728,1.9576 -1.9628,1.9576 -1.0896,0 -1.9572,-0.8676 -1.9572,-1.9576 l 0,0 z m 0.0976,0 c 0,1.0356 0.824,1.86 1.8596,1.86 1.0356,0 1.8652,-0.8244 1.8652,-1.86 0,-1.0352 -0.8296,-1.8488 -1.8652,-1.8488 -1.0356,0 -1.8596,0.8136 -1.8596,1.8488 l 0,0 z m 7.0944,-1.854 c 0,-0.0216 0.0164,-0.038 0.038,-0.038 l 0.0216,0 c 0.022,0 0.038,0.0164 0.038,0.038 l 0,1.2904 1.0736,0 c 0.678,0 1.2364,0.5584 1.2364,1.2416 0,0.6724 -0.5584,1.2252 -1.2416,1.2252 l -1.128,0 c -0.0216,0 -0.038,-0.016 -0.038,-0.038 l 0,-3.7192 0,0 z m 0.0976,1.388 0,2.2716 1.0684,0 c 0.6288,0 1.144,-0.5096 1.144,-1.1276 0,-0.6292 -0.5152,-1.144 -1.1388,-1.144 l -1.0736,0 0,0 z m 5.1268,-1.3828 c -0.0056,-0.0268 -0.0056,-0.038 0.016,-0.0432 l 0.0436,-0.0108 c 0.016,-0.0056 0.0268,0.0052 0.0324,0.0324 l 0.7536,3.5892 1.1656,-3.6544 c 0.0108,-0.0376 0.0652,-0.0376 0.076,0 l 1.144,3.6544 0.7808,-3.5892 c 0.0056,-0.0272 0.0164,-0.038 0.0324,-0.0324 l 0.0436,0.0108 c 0.0216,0.0052 0.0216,0.0164 0.016,0.0432 l -0.8184,3.8172 c -0.0108,0.038 -0.0652,0.038 -0.076,0 L 69.2944,0.3064 68.118,3.9716 c -0.0108,0.038 -0.0704,0.038 -0.076,0 l -0.7968,-3.8172 0,0 z M 74.562,0.1492 c 0,-0.0216 0.016,-0.038 0.038,-0.038 l 2.2064,0 c 0.022,0 0.038,0.0164 0.038,0.038 l 0,0.0216 c 0,0.0216 -0.016,0.038 -0.038,0.038 l -2.1468,0 0,1.8272 1.8868,0 c 0.0216,0 0.038,0.016 0.038,0.038 l 0,0.0216 c 0,0.0216 -0.0164,0.038 -0.038,0.038 l -1.8868,0 0,1.6752 2.1468,0 c 0.022,0 0.038,0.0164 0.038,0.038 l 0,0.0216 c 0,0.022 -0.016,0.038 -0.038,0.038 l -2.2064,0 c -0.022,0 -0.038,-0.016 -0.038,-0.038 l 0,-3.7192 0,0 z m 5.2416,0 c 0,-0.0216 0.016,-0.038 0.0376,-0.038 l 0.022,0 c 0.0216,0 0.038,0.0164 0.038,0.038 l 0,3.6324 2.8028,-3.7356 c 0.022,-0.0324 0.0708,-0.016 0.0708,0.0216 l 0,3.8008 c 0,0.022 -0.0164,0.038 -0.038,0.038 l -0.022,0 c -0.0216,0 -0.0376,-0.016 -0.0376,-0.038 l 0,-3.6216 -2.8032,3.7356 C 79.8524,4.0148 79.8036,3.9988 79.8036,3.9608 l 0,-3.8116 0,0 z m 6.962,0.0936 c 0,-0.022 0.0164,-0.038 0.038,-0.038 l 0.0216,0 c 0.022,0 0.038,0.016 0.038,0.038 l 0,3.6596 1.1388,0 c 0.0216,0 0.038,0.0164 0.038,0.038 l 0,0.0216 C 88.04,3.9836 88.0236,4 88.002,4 L 85.638,4 C 85.6164,4 85.6,3.9836 85.6,3.962 l 0,-0.0216 c 0,-0.0216 0.0164,-0.038 0.038,-0.038 l 1.1276,0 0,-3.6596 0,0 z" /></clipPath><clipPath
       id="clipPath3483"
       clipPathUnits="userSpaceOnUse"><path
         id="path3485"
         d="M 28,0 89,0 89,5 28,5 28,0 Z" /></clipPath><clipPath
       id="clipPath3487"
       clipPathUnits="userSpaceOnUse"><path
         id="path3489"
         d="M 28,0 89,0 89,5 28,5 28,0 Z" /></clipPath><clipPath
       id="clipPath3491"
       clipPathUnits="userSpaceOnUse"><path
         style="clip-rule:evenodd"
         id="path3493"
         d="m 28,4.032 60.048,0 L 88.048,0 28,0 28,4.032 Z" /></clipPath><clipPath
       id="clipPath3495"
       clipPathUnits="userSpaceOnUse"><path
         id="path3497"
         d="M 28,0 89,0 89,5 28,5 28,0 Z" /></clipPath></defs><g
     transform="matrix(1.25,0,0,-1.25,0,25)"
     id="g3367"><g
       id="g3369" /><g
       id="g3371"><g
         clip-path="url(#clipPath3375)"
         id="g3373"><g
           clip-path="url(#clipPath3381)"
           id="g3379"><g
             id="g3385" /><g
             id="g3399"><g
               id="g3401"
               clip-path="url(#clipPath3387)"><g
                 id="g3403" /><g
                 id="g3405"><g
                   id="g3407"
                   clip-path="url(#clipPath3391)"><g
                     id="g3409"
                     clip-path="url(#clipPath3395)"><path
                       id="path3411"
                       style="fill:#ff4e50;fill-opacity:1;fill-rule:nonzero;stroke:none"
                       d="m -5,24 30,0 0,-28 -30,0 0,28 z" /></g></g></g></g></g></g></g></g><g
       id="g3413"><g
         clip-path="url(#clipPath3417)"
         id="g3415"><g
           clip-path="url(#clipPath3423)"
           id="g3421"><g
             id="g3427" /><g
             id="g3441"><g
               id="g3443"
               clip-path="url(#clipPath3429)"><g
                 id="g3445" /><g
                 id="g3447"><g
                   id="g3449"
                   clip-path="url(#clipPath3433)"><g
                     id="g3451"
                     clip-path="url(#clipPath3437)"><path
                       id="path3453"
                       style="fill:#ff4e50;fill-opacity:1;fill-rule:nonzero;stroke:none"
                       d="m 23,25.016 70,0 0,-22.048 -70,0 0,22.048 z" /></g></g></g></g></g></g></g></g><g
       id="g3455"><g
         clip-path="url(#clipPath3459)"
         id="g3457"><g
           transform="matrix(1,0,0,-1,28,4.0001)"
           id="g3463"><path
             id="path3465"
             style="fill:none;stroke:#ff4e50;stroke-width:0.5;stroke-linecap:butt;stroke-linejoin:miter;stroke-miterlimit:10;stroke-dasharray:none;stroke-opacity:1"
             d="m 0,3.8509 c 0,0.0216 0.0164,0.038 0.0324,0.038 l 1.0844,0 c 1.0572,0 1.914,-0.8456 1.914,-1.9032 0,-1.0464 -0.8568,-1.892 -1.914,-1.892 l -1.0844,0 C 0.0164,0.0937 0,0.1097 0,0.1317 l 0,3.7192 0,0 z m 0.092,-0.0596 0,-3.6 1.0248,0 c 1.0032,0 1.822,0.8024 1.822,1.7944 0,1.0032 -0.8188,1.8056 -1.822,1.8056 l -1.0248,0 0,0 z m 5.8164,0.0596 c 0,0.0216 0.0164,0.038 0.038,0.038 l 2.2068,0 c 0.0216,0 0.038,-0.0164 0.038,-0.038 l 0,-0.0216 c 0,-0.0216 -0.0164,-0.038 -0.038,-0.038 l -2.1472,0 0,-1.8272 1.8868,0 c 0.0216,0 0.038,-0.016 0.038,-0.038 l 0,-0.0216 c 0,-0.0216 -0.0164,-0.038 -0.038,-0.038 l -1.8868,0 0,-1.6752 2.1472,0 c 0.0216,0 0.038,-0.0164 0.038,-0.038 l 0,-0.0216 c 0,-0.022 -0.0164,-0.038 -0.038,-0.038 l -2.2068,0 c -0.0216,0 -0.038,0.016 -0.038,0.038 l 0,3.7192 0,0 z m 6.3152,0.1248 c 0.016,0.0324 0.0488,0.0324 0.0648,0 l 1.67,-3.844 c 0.0056,-0.0164 0,-0.0272 -0.016,-0.0328 l -0.0488,-0.016 c -0.0164,-0.0056 -0.022,0.0052 -0.0272,0.016 L 12.256,3.8021 10.6836,0.0989 C 10.6784,0.0881 10.6728,0.0773 10.6564,0.0829 l -0.0488,0.016 c -0.016,0.0056 -0.0216,0.0164 -0.016,0.0328 l 1.632,3.844 0,0 z m 4.7252,-0.1248 c 0,0.0216 0.016,0.038 0.038,0.038 l 2.2064,0 c 0.022,0 0.038,-0.0164 0.038,-0.038 l 0,-0.0216 c 0,-0.0216 -0.016,-0.038 -0.038,-0.038 l -2.1468,0 0,-1.8272 1.8868,0 c 0.0216,0 0.038,-0.016 0.038,-0.038 l 0,-0.0216 c 0,-0.0216 -0.0164,-0.038 -0.038,-0.038 l -1.8868,0 0,-1.6752 2.1468,0 c 0.022,0 0.038,-0.0164 0.038,-0.038 l 0,-0.0216 c 0,-0.022 -0.016,-0.038 -0.038,-0.038 l -2.2064,0 c -0.022,0 -0.038,0.016 -0.038,0.038 l 0,3.7192 0,0 z m 5.2416,0 c 0,0.0216 0.016,0.038 0.038,0.038 l 1.9464,0 c 0.0216,0 0.038,-0.0164 0.038,-0.038 l 0,-0.0216 c 0,-0.0216 -0.0164,-0.038 -0.038,-0.038 l -1.8924,0 0,-3.6596 c 0,-0.022 -0.0164,-0.038 -0.0324,-0.038 l -0.0216,0 c -0.022,0 -0.038,0.016 -0.038,0.038 l 0,3.7192 0,0 z m 4.6384,-1.854 c 0,1.0896 0.8676,1.9464 1.9572,1.9464 1.09,0 1.9628,-0.8568 1.9628,-1.9464 0,-1.09 -0.8728,-1.9576 -1.9628,-1.9576 -1.0896,0 -1.9572,0.8676 -1.9572,1.9576 l 0,0 z m 0.0976,0 c 0,-1.0356 0.824,-1.86 1.8596,-1.86 1.0356,0 1.8652,0.8244 1.8652,1.86 0,1.0352 -0.8296,1.8488 -1.8652,1.8488 -1.0356,0 -1.8596,-0.8136 -1.8596,-1.8488 l 0,0 z m 7.0944,1.854 c 0,0.0216 0.0164,0.038 0.038,0.038 l 0.0216,0 c 0.022,0 0.038,-0.0164 0.038,-0.038 l 0,-1.2904 1.0736,0 c 0.678,0 1.2364,-0.5584 1.2364,-1.2416 0,-0.6724 -0.5584,-1.2252 -1.2416,-1.2252 l -1.128,0 c -0.0216,0 -0.038,0.016 -0.038,0.038 l 0,3.7192 0,0 z m 0.0976,-1.388 0,-2.2716 1.0684,0 c 0.6288,0 1.144,0.5096 1.144,1.1276 0,0.6292 -0.5152,1.144 -1.1388,1.144 l -1.0736,0 0,0 z m 5.1268,1.3828 c -0.0056,0.0268 -0.0056,0.038 0.016,0.0432 l 0.0436,0.0108 c 0.016,0.0056 0.0268,-0.0052 0.0324,-0.0324 l 0.7536,-3.5892 1.1656,3.6544 c 0.0108,0.0376 0.0652,0.0376 0.076,0 l 1.144,-3.6544 0.7808,3.5892 c 0.0056,0.0272 0.0164,0.038 0.0324,0.0324 l 0.0436,-0.0108 c 0.0216,-0.0052 0.0216,-0.0164 0.016,-0.0432 L 42.5308,0.0285 c -0.0108,-0.038 -0.0652,-0.038 -0.076,0 L 41.2944,3.6937 40.118,0.0285 c -0.0108,-0.038 -0.0704,-0.038 -0.076,0 l -0.7968,3.8172 0,0 z m 7.3168,0.0052 c 0,0.0216 0.016,0.038 0.038,0.038 l 2.2064,0 c 0.022,0 0.038,-0.0164 0.038,-0.038 l 0,-0.0216 c 0,-0.0216 -0.016,-0.038 -0.038,-0.038 l -2.1468,0 0,-1.8272 1.8868,0 c 0.0216,0 0.038,-0.016 0.038,-0.038 l 0,-0.0216 c 0,-0.0216 -0.0164,-0.038 -0.038,-0.038 l -1.8868,0 0,-1.6752 2.1468,0 c 0.022,0 0.038,-0.0164 0.038,-0.038 l 0,-0.0216 c 0,-0.022 -0.016,-0.038 -0.038,-0.038 l -2.2064,0 c -0.022,0 -0.038,0.016 -0.038,0.038 l 0,3.7192 0,0 z m 5.2416,0 c 0,0.0216 0.016,0.038 0.0376,0.038 l 0.022,0 c 0.0216,0 0.038,-0.0164 0.038,-0.038 l 0,-3.6324 2.8028,3.7356 c 0.022,0.0324 0.0708,0.016 0.0708,-0.0216 l 0,-3.8008 c 0,-0.022 -0.0164,-0.038 -0.038,-0.038 l -0.022,0 c -0.0216,0 -0.0376,0.016 -0.0376,0.038 l 0,3.6216 L 51.874,0.0177 C 51.8524,-0.0147 51.8036,0.0013 51.8036,0.0393 l 0,3.8116 0,0 z m 6.962,-0.0936 c 0,0.022 0.0164,0.038 0.038,0.038 l 0.0216,0 c 0.022,0 0.038,-0.016 0.038,-0.038 l 0,-3.6596 1.1388,0 c 0.0216,0 0.038,-0.0164 0.038,-0.038 l 0,-0.0216 C 60.04,0.0165 60.0236,1e-4 60.002,1e-4 l -2.364,0 c -0.0216,0 -0.038,0.0164 -0.038,0.038 l 0,0.0216 c 0,0.0216 0.0164,0.038 0.038,0.038 l 1.1276,0 0,3.6596 0,0 z" /></g></g></g><g
       id="g3467"><g
         clip-path="url(#clipPath3471)"
         id="g3469"><g
           clip-path="url(#clipPath3477)"
           id="g3475"><g
             id="g3481" /><g
             id="g3499"><g
               id="g3501"
               clip-path="url(#clipPath3483)"><g
                 id="g3503" /><g
                 id="g3505"><g
                   id="g3507"
                   clip-path="url(#clipPath3487)"><g
                     id="g3509"
                     transform="matrix(1,0,0,-1,28,4.0001)"><path
                       id="path3511"
                       style="fill:none;stroke:#ff4e50;stroke-width:0.5;stroke-linecap:butt;stroke-linejoin:miter;stroke-miterlimit:10;stroke-dasharray:none;stroke-opacity:1"
                       d="m 0,3.8509 c 0,0.0216 0.0164,0.038 0.0324,0.038 l 1.0844,0 c 1.0572,0 1.914,-0.8456 1.914,-1.9032 0,-1.0464 -0.8568,-1.892 -1.914,-1.892 l -1.0844,0 C 0.0164,0.0937 0,0.1097 0,0.1317 l 0,3.7192 0,0 z m 0.092,-0.0596 0,-3.6 1.0248,0 c 1.0032,0 1.822,0.8024 1.822,1.7944 0,1.0032 -0.8188,1.8056 -1.822,1.8056 l -1.0248,0 0,0 z m 5.8164,0.0596 c 0,0.0216 0.0164,0.038 0.038,0.038 l 2.2068,0 c 0.0216,0 0.038,-0.0164 0.038,-0.038 l 0,-0.0216 c 0,-0.0216 -0.0164,-0.038 -0.038,-0.038 l -2.1472,0 0,-1.8272 1.8868,0 c 0.0216,0 0.038,-0.016 0.038,-0.038 l 0,-0.0216 c 0,-0.0216 -0.0164,-0.038 -0.038,-0.038 l -1.8868,0 0,-1.6752 2.1472,0 c 0.0216,0 0.038,-0.0164 0.038,-0.038 l 0,-0.0216 c 0,-0.022 -0.0164,-0.038 -0.038,-0.038 l -2.2068,0 c -0.0216,0 -0.038,0.016 -0.038,0.038 l 0,3.7192 0,0 z m 6.3152,0.1248 c 0.016,0.0324 0.0488,0.0324 0.0648,0 l 1.67,-3.844 c 0.0056,-0.0164 0,-0.0272 -0.016,-0.0328 l -0.0488,-0.016 c -0.0164,-0.0056 -0.022,0.0052 -0.0272,0.016 L 12.256,3.8021 10.6836,0.0989 C 10.6784,0.0881 10.6728,0.0773 10.6564,0.0829 l -0.0488,0.016 c -0.016,0.0056 -0.0216,0.0164 -0.016,0.0328 l 1.632,3.844 0,0 z m 4.7252,-0.1248 c 0,0.0216 0.016,0.038 0.038,0.038 l 2.2064,0 c 0.022,0 0.038,-0.0164 0.038,-0.038 l 0,-0.0216 c 0,-0.0216 -0.016,-0.038 -0.038,-0.038 l -2.1468,0 0,-1.8272 1.8868,0 c 0.0216,0 0.038,-0.016 0.038,-0.038 l 0,-0.0216 c 0,-0.0216 -0.0164,-0.038 -0.038,-0.038 l -1.8868,0 0,-1.6752 2.1468,0 c 0.022,0 0.038,-0.0164 0.038,-0.038 l 0,-0.0216 c 0,-0.022 -0.016,-0.038 -0.038,-0.038 l -2.2064,0 c -0.022,0 -0.038,0.016 -0.038,0.038 l 0,3.7192 0,0 z m 5.2416,0 c 0,0.0216 0.016,0.038 0.038,0.038 l 1.9464,0 c 0.0216,0 0.038,-0.0164 0.038,-0.038 l 0,-0.0216 c 0,-0.0216 -0.0164,-0.038 -0.038,-0.038 l -1.8924,0 0,-3.6596 c 0,-0.022 -0.0164,-0.038 -0.0324,-0.038 l -0.0216,0 c -0.022,0 -0.038,0.016 -0.038,0.038 l 0,3.7192 0,0 z m 4.6384,-1.854 c 0,1.0896 0.8676,1.9464 1.9572,1.9464 1.09,0 1.9628,-0.8568 1.9628,-1.9464 0,-1.09 -0.8728,-1.9576 -1.9628,-1.9576 -1.0896,0 -1.9572,0.8676 -1.9572,1.9576 l 0,0 z m 0.0976,0 c 0,-1.0356 0.824,-1.86 1.8596,-1.86 1.0356,0 1.8652,0.8244 1.8652,1.86 0,1.0352 -0.8296,1.8488 -1.8652,1.8488 -1.0356,0 -1.8596,-0.8136 -1.8596,-1.8488 l 0,0 z m 7.0944,1.854 c 0,0.0216 0.0164,0.038 0.038,0.038 l 0.0216,0 c 0.022,0 0.038,-0.0164 0.038,-0.038 l 0,-1.2904 1.0736,0 c 0.678,0 1.2364,-0.5584 1.2364,-1.2416 0,-0.6724 -0.5584,-1.2252 -1.2416,-1.2252 l -1.128,0 c -0.0216,0 -0.038,0.016 -0.038,0.038 l 0,3.7192 0,0 z m 0.0976,-1.388 0,-2.2716 1.0684,0 c 0.6288,0 1.144,0.5096 1.144,1.1276 0,0.6292 -0.5152,1.144 -1.1388,1.144 l -1.0736,0 0,0 z m 5.1268,1.3828 c -0.0056,0.0268 -0.0056,0.038 0.016,0.0432 l 0.0436,0.0108 c 0.016,0.0056 0.0268,-0.0052 0.0324,-0.0324 l 0.7536,-3.5892 1.1656,3.6544 c 0.0108,0.0376 0.0652,0.0376 0.076,0 l 1.144,-3.6544 0.7808,3.5892 c 0.0056,0.0272 0.0164,0.038 0.0324,0.0324 l 0.0436,-0.0108 c 0.0216,-0.0052 0.0216,-0.0164 0.016,-0.0432 L 42.5308,0.0285 c -0.0108,-0.038 -0.0652,-0.038 -0.076,0 L 41.2944,3.6937 40.118,0.0285 c -0.0108,-0.038 -0.0704,-0.038 -0.076,0 l -0.7968,3.8172 0,0 z m 7.3168,0.0052 c 0,0.0216 0.016,0.038 0.038,0.038 l 2.2064,0 c 0.022,0 0.038,-0.0164 0.038,-0.038 l 0,-0.0216 c 0,-0.0216 -0.016,-0.038 -0.038,-0.038 l -2.1468,0 0,-1.8272 1.8868,0 c 0.0216,0 0.038,-0.016 0.038,-0.038 l 0,-0.0216 c 0,-0.0216 -0.0164,-0.038 -0.038,-0.038 l -1.8868,0 0,-1.6752 2.1468,0 c 0.022,0 0.038,-0.0164 0.038,-0.038 l 0,-0.0216 c 0,-0.022 -0.016,-0.038 -0.038,-0.038 l -2.2064,0 c -0.022,0 -0.038,0.016 -0.038,0.038 l 0,3.7192 0,0 z m 5.2416,0 c 0,0.0216 0.016,0.038 0.0376,0.038 l 0.022,0 c 0.0216,0 0.038,-0.0164 0.038,-0.038 l 0,-3.6324 2.8028,3.7356 c 0.022,0.0324 0.0708,0.016 0.0708,-0.0216 l 0,-3.8008 c 0,-0.022 -0.0164,-0.038 -0.038,-0.038 l -0.022,0 c -0.0216,0 -0.0376,0.016 -0.0376,0.038 l 0,3.6216 L 51.874,0.0177 C 51.8524,-0.0147 51.8036,0.0013 51.8036,0.0393 l 0,3.8116 0,0 z m 6.962,-0.0936 c 0,0.022 0.0164,0.038 0.038,0.038 l 0.0216,0 c 0.022,0 0.038,-0.016 0.038,-0.038 l 0,-3.6596 1.1388,0 c 0.0216,0 0.038,-0.0164 0.038,-0.038 l 0,-0.0216 C 60.04,0.0165 60.0236,1e-4 60.002,1e-4 l -2.364,0 c -0.0216,0 -0.038,0.0164 -0.038,0.038 l 0,0.0216 c 0,0.0216 0.0164,0.038 0.038,0.038 l 1.1276,0 0,3.6596 0,0 z" /></g></g></g><g
                 id="g3513"><g
                   id="g3515"
                   clip-path="url(#clipPath3491)"><g
                     id="g3517"
                     clip-path="url(#clipPath3495)"><path
                       id="path3519"
                       style="fill:#ff4e50;fill-opacity:1;fill-rule:nonzero;stroke:none"
                       d="m 23,9.032 70.048,0 L 93.048,-5 23,-5 23,9.032 Z" /></g></g></g></g></g></g></g></g></g></svg>